# xmcd
#
# Track frame offsets:
#	150
#	17420
#	41333
#	61838
#	82578
#	103948
#	126303
#	152335
#	176938
#	193878
#	216100
#	233628
#
# Disc length: 3366 seconds
#
# Revision: 1
# Processed by: cddbd v1.4PL0 Copyright (c) Steve Scherf et al.
# Submitted via: audiograbber 1.80
#
DISCID=930d240c
DTITLE=Mastercuts - New Jack Swing Volume 4
DYEAR=1900
DGENRE=
TTITLE0=Basic Black - She's Mine (Lp Version)
TTITLE1=Arb - New Jack City (Lp Version)
TTITLE2=Bell Biv Devoe - Do Me (Lp Version)
TTITLE3=Jodeci - It's Alright (Lp Version)
TTITLE4=Guy - Wanna Get With U (Lp Version)
TTITLE5=Father Mc - Lisa Baby (Lp Version)
TTITLE6=Heavy D and The Boyz - We've Got Our Own Thang (Us Version)
TTITLE7=Jeff Redd - I Found Lovin' (Lp Version)
TTITLE8=Joe - I'm In Luv (Lp Version)
TTITLE9=Swv Feat. Wu Tang Clan - Anything (Old Skool Mix)
TTITLE10=Redhead Kingpin and The Fbi - Do The Right Thing (Lp Version)
TTITLE11=Tamrock - Listen Closely (Bozack) (Lp Version)
EXTD=
EXTT0=
EXTT1=
EXTT2=
EXTT3=
EXTT4=
EXTT5=
EXTT6=
EXTT7=
EXTT8=
EXTT9=
EXTT10=
EXTT11=
PLAYORDER=
